<mxfile host="Electron" agent="Mozilla/5.0 (Macintosh; Intel Mac OS X 10_15_7) AppleWebKit/537.36 (KHTML, like Gecko) draw.io/28.1.2 Chrome/138.0.7204.243 Electron/37.4.0 Safari/537.36" version="28.1.2">
  <diagram id="Flow" name="Flow">
    <mxGraphModel dx="1506" dy="2197" grid="1" gridSize="10" guides="1" tooltips="1" connect="1" arrows="1" fold="1" page="1" pageScale="1" pageWidth="827" pageHeight="1169" math="0" shadow="0">
      <root>
        <mxCell id="0" />
        <mxCell id="1" parent="0" />
        <mxCell id="101" value="carrito" style="swimlane;rounded=1;fillColor=#111827;fontColor=#E5E7EB;" parent="1" vertex="1">
          <mxGeometry x="20" y="50" width="1000" height="600" as="geometry" />
        </mxCell>
        <mxCell id="102" value="_go_back()" style="rounded=1;whiteSpace=wrap;html=1;fillColor=#1F2937;strokeColor=#93C5FD;fontColor=#E5E7EB;" parent="101" vertex="1">
          <mxGeometry x="40" y="40" width="180" height="54" as="geometry" />
        </mxCell>
        <mxCell id="103" value="on_pre_enter()" style="rounded=1;whiteSpace=wrap;html=1;fillColor=#1F2937;strokeColor=#93C5FD;fontColor=#E5E7EB;" parent="101" vertex="1">
          <mxGeometry x="300" y="40" width="180" height="54" as="geometry" />
        </mxCell>
        <mxCell id="105" value="_build_ui()" style="rounded=1;whiteSpace=wrap;html=1;fillColor=#1F2937;strokeColor=#93C5FD;fontColor=#E5E7EB;" parent="101" vertex="1">
          <mxGeometry x="40" y="148" width="180" height="54" as="geometry" />
        </mxCell>
        <mxCell id="106" value="_finalize_order()" style="rounded=1;whiteSpace=wrap;html=1;fillColor=#FCA5A5;strokeColor=#7F1D1D;fontColor=#E5E7EB;" parent="101" vertex="1">
          <mxGeometry x="790" y="110" width="180" height="54" as="geometry" />
        </mxCell>
        <mxCell id="107" value="_suggest()" style="rounded=1;whiteSpace=wrap;html=1;fillColor=#FCA5A5;strokeColor=#7F1D1D;fontColor=#E5E7EB;" parent="101" vertex="1">
          <mxGeometry x="780" y="364" width="180" height="54" as="geometry" />
        </mxCell>
        <mxCell id="108" value="_pick_product()" style="rounded=1;whiteSpace=wrap;html=1;fillColor=#1F2937;strokeColor=#93C5FD;fontColor=#E5E7EB;" parent="101" vertex="1">
          <mxGeometry x="40" y="256" width="180" height="54" as="geometry" />
        </mxCell>
        <mxCell id="109" value="_wrap_button()" style="rounded=1;whiteSpace=wrap;html=1;fillColor=#1F2937;strokeColor=#93C5FD;fontColor=#E5E7EB;" parent="101" vertex="1">
          <mxGeometry x="300" y="256" width="180" height="54" as="geometry" />
        </mxCell>
        <mxCell id="110" value="_price_to_int()" style="rounded=1;whiteSpace=wrap;html=1;fillColor=#1F2937;strokeColor=#93C5FD;fontColor=#E5E7EB;" parent="101" vertex="1">
          <mxGeometry x="560" y="256" width="180" height="54" as="geometry" />
        </mxCell>
        <mxCell id="111" value="_add_to_cart()" style="rounded=1;whiteSpace=wrap;html=1;fillColor=#1F2937;strokeColor=#93C5FD;fontColor=#E5E7EB;" parent="101" vertex="1">
          <mxGeometry x="40" y="364" width="180" height="54" as="geometry" />
        </mxCell>
        <mxCell id="112" value="_render_cart()" style="rounded=1;whiteSpace=wrap;html=1;fillColor=#1F2937;strokeColor=#93C5FD;fontColor=#E5E7EB;" parent="101" vertex="1">
          <mxGeometry x="300" y="364" width="180" height="54" as="geometry" />
        </mxCell>
        <mxCell id="113" value="_chg_qty()" style="rounded=1;whiteSpace=wrap;html=1;fillColor=#1F2937;strokeColor=#93C5FD;fontColor=#E5E7EB;" parent="101" vertex="1">
          <mxGeometry x="560" y="364" width="180" height="54" as="geometry" />
        </mxCell>
        <mxCell id="114" value="_del_item()" style="rounded=1;whiteSpace=wrap;html=1;fillColor=#1F2937;strokeColor=#93C5FD;fontColor=#E5E7EB;" parent="101" vertex="1">
          <mxGeometry x="40" y="472" width="180" height="54" as="geometry" />
        </mxCell>
        <mxCell id="115" value="_persist_draft()" style="rounded=1;whiteSpace=wrap;html=1;fillColor=#FCA5A5;strokeColor=#7F1D1D;fontColor=#E5E7EB;" parent="101" vertex="1">
          <mxGeometry x="560" y="500" width="180" height="54" as="geometry" />
        </mxCell>
        <mxCell id="117" value="_refresh_totals()" style="rounded=1;whiteSpace=wrap;html=1;fillColor=#1F2937;strokeColor=#93C5FD;fontColor=#E5E7EB;" parent="101" vertex="1">
          <mxGeometry x="40" y="580" width="180" height="54" as="geometry" />
        </mxCell>
        <mxCell id="120" value="_db_path()" style="rounded=1;whiteSpace=wrap;html=1;fillColor=#1F2937;strokeColor=#93C5FD;fontColor=#E5E7EB;" parent="101" vertex="1">
          <mxGeometry x="40" y="688" width="180" height="54" as="geometry" />
        </mxCell>
        <mxCell id="121" value="DATASOURCES" style="swimlane;rounded=1;fillColor=#111827;fontColor=#E5E7EB;" parent="1" vertex="1">
          <mxGeometry x="1290" y="-70" width="500" height="600" as="geometry" />
        </mxCell>
        <mxCell id="122" value="DB: todoferre.db" style="ellipse;whiteSpace=wrap;fillColor=#FCA5A5;strokeColor=#7F1D1D;fontColor=#E5E7EB;" parent="121" vertex="1">
          <mxGeometry x="40" y="40" width="200" height="70" as="geometry" />
        </mxCell>
        <mxCell id="123" style="endArrow=block;rounded=1;jettySize=auto;edgeStyle=orthogonalEdgeStyle;orthogonalLoop=1;jumpStyle=arc;jumpSize=8;strokeColor=#93C5FD;" parent="1" source="111" target="115" edge="1">
          <mxGeometry relative="1" as="geometry" />
        </mxCell>
        <mxCell id="124" style="endArrow=block;rounded=1;jettySize=auto;edgeStyle=orthogonalEdgeStyle;orthogonalLoop=1;jumpStyle=arc;jumpSize=8;strokeColor=#93C5FD;" parent="1" source="111" target="112" edge="1">
          <mxGeometry relative="1" as="geometry" />
        </mxCell>
        <mxCell id="125" style="endArrow=block;rounded=1;jettySize=auto;edgeStyle=orthogonalEdgeStyle;orthogonalLoop=1;jumpStyle=arc;jumpSize=8;strokeColor=#93C5FD;" parent="1" source="105" target="106" edge="1">
          <mxGeometry relative="1" as="geometry" />
        </mxCell>
        <mxCell id="126" style="endArrow=block;rounded=1;jettySize=auto;edgeStyle=orthogonalEdgeStyle;orthogonalLoop=1;jumpStyle=arc;jumpSize=8;strokeColor=#93C5FD;" parent="1" source="105" target="107" edge="1">
          <mxGeometry relative="1" as="geometry" />
        </mxCell>
        <mxCell id="127" style="endArrow=block;rounded=1;jettySize=auto;edgeStyle=orthogonalEdgeStyle;orthogonalLoop=1;jumpStyle=arc;jumpSize=8;strokeColor=#93C5FD;" parent="1" source="113" target="115" edge="1">
          <mxGeometry relative="1" as="geometry" />
        </mxCell>
        <mxCell id="128" style="endArrow=block;rounded=1;jettySize=auto;edgeStyle=orthogonalEdgeStyle;orthogonalLoop=1;jumpStyle=arc;jumpSize=8;strokeColor=#93C5FD;" parent="1" source="113" target="112" edge="1">
          <mxGeometry relative="1" as="geometry" />
        </mxCell>
        <mxCell id="129" style="endArrow=block;rounded=1;jettySize=auto;edgeStyle=orthogonalEdgeStyle;orthogonalLoop=1;jumpStyle=arc;jumpSize=8;strokeColor=#93C5FD;" parent="1" source="114" target="115" edge="1">
          <mxGeometry relative="1" as="geometry" />
        </mxCell>
        <mxCell id="130" style="endArrow=block;rounded=1;jettySize=auto;edgeStyle=orthogonalEdgeStyle;orthogonalLoop=1;jumpStyle=arc;jumpSize=8;strokeColor=#93C5FD;" parent="1" source="114" target="112" edge="1">
          <mxGeometry relative="1" as="geometry" />
        </mxCell>
        <mxCell id="131" style="endArrow=block;rounded=1;jettySize=auto;edgeStyle=orthogonalEdgeStyle;orthogonalLoop=1;jumpStyle=arc;jumpSize=8;strokeColor=#93C5FD;" parent="1" source="106" target="120" edge="1">
          <mxGeometry relative="1" as="geometry" />
        </mxCell>
        <mxCell id="132" style="endArrow=block;rounded=1;jettySize=auto;edgeStyle=orthogonalEdgeStyle;orthogonalLoop=1;jumpStyle=arc;jumpSize=8;strokeColor=#93C5FD;" parent="1" source="106" target="116" edge="1">
          <mxGeometry relative="1" as="geometry" />
        </mxCell>
        <mxCell id="133" style="endArrow=block;rounded=1;jettySize=auto;edgeStyle=orthogonalEdgeStyle;orthogonalLoop=1;jumpStyle=arc;jumpSize=8;strokeColor=#93C5FD;" parent="1" source="104" target="105" edge="1">
          <mxGeometry relative="1" as="geometry" />
        </mxCell>
        <mxCell id="134" style="endArrow=block;rounded=1;jettySize=auto;edgeStyle=orthogonalEdgeStyle;orthogonalLoop=1;jumpStyle=arc;jumpSize=8;strokeColor=#93C5FD;" parent="1" source="104" target="112" edge="1">
          <mxGeometry relative="1" as="geometry" />
        </mxCell>
        <mxCell id="135" style="endArrow=block;rounded=1;jettySize=auto;edgeStyle=orthogonalEdgeStyle;orthogonalLoop=1;jumpStyle=arc;jumpSize=8;strokeColor=#93C5FD;" parent="1" source="104" target="120" edge="1">
          <mxGeometry relative="1" as="geometry" />
        </mxCell>
        <mxCell id="136" style="endArrow=block;rounded=1;jettySize=auto;edgeStyle=orthogonalEdgeStyle;orthogonalLoop=1;jumpStyle=arc;jumpSize=8;strokeColor=#93C5FD;" parent="1" source="115" target="120" edge="1">
          <mxGeometry relative="1" as="geometry" />
        </mxCell>
        <mxCell id="137" style="endArrow=block;rounded=1;jettySize=auto;edgeStyle=orthogonalEdgeStyle;orthogonalLoop=1;jumpStyle=arc;jumpSize=8;strokeColor=#93C5FD;" parent="1" source="115" target="116" edge="1">
          <mxGeometry relative="1" as="geometry" />
        </mxCell>
        <mxCell id="138" style="endArrow=block;rounded=1;jettySize=auto;edgeStyle=orthogonalEdgeStyle;orthogonalLoop=1;jumpStyle=arc;jumpSize=8;strokeColor=#93C5FD;" parent="1" source="108" target="111" edge="1">
          <mxGeometry relative="1" as="geometry" />
        </mxCell>
        <mxCell id="139" style="endArrow=block;rounded=1;jettySize=auto;edgeStyle=orthogonalEdgeStyle;orthogonalLoop=1;jumpStyle=arc;jumpSize=8;strokeColor=#93C5FD;" parent="1" source="112" target="113" edge="1">
          <mxGeometry relative="1" as="geometry" />
        </mxCell>
        <mxCell id="140" style="endArrow=block;rounded=1;jettySize=auto;edgeStyle=orthogonalEdgeStyle;orthogonalLoop=1;jumpStyle=arc;jumpSize=8;strokeColor=#93C5FD;" parent="1" source="112" target="114" edge="1">
          <mxGeometry relative="1" as="geometry" />
        </mxCell>
        <mxCell id="141" style="endArrow=block;rounded=1;jettySize=auto;edgeStyle=orthogonalEdgeStyle;orthogonalLoop=1;jumpStyle=arc;jumpSize=8;strokeColor=#93C5FD;" parent="1" source="112" target="117" edge="1">
          <mxGeometry relative="1" as="geometry" />
        </mxCell>
        <mxCell id="142" style="endArrow=block;rounded=1;jettySize=auto;edgeStyle=orthogonalEdgeStyle;orthogonalLoop=1;jumpStyle=arc;jumpSize=8;strokeColor=#93C5FD;" parent="1" source="112" target="118" edge="1">
          <mxGeometry relative="1" as="geometry" />
        </mxCell>
        <mxCell id="143" style="endArrow=block;rounded=1;jettySize=auto;edgeStyle=orthogonalEdgeStyle;orthogonalLoop=1;jumpStyle=arc;jumpSize=8;strokeColor=#93C5FD;" parent="1" source="112" target="119" edge="1">
          <mxGeometry relative="1" as="geometry" />
        </mxCell>
        <mxCell id="144" style="endArrow=block;rounded=1;jettySize=auto;edgeStyle=orthogonalEdgeStyle;orthogonalLoop=1;jumpStyle=arc;jumpSize=8;strokeColor=#93C5FD;" parent="1" source="107" target="108" edge="1">
          <mxGeometry relative="1" as="geometry" />
        </mxCell>
        <mxCell id="145" style="endArrow=block;rounded=1;jettySize=auto;edgeStyle=orthogonalEdgeStyle;orthogonalLoop=1;jumpStyle=arc;jumpSize=8;strokeColor=#93C5FD;" parent="1" source="107" target="109" edge="1">
          <mxGeometry relative="1" as="geometry" />
        </mxCell>
        <mxCell id="146" style="endArrow=block;rounded=1;jettySize=auto;edgeStyle=orthogonalEdgeStyle;orthogonalLoop=1;jumpStyle=arc;jumpSize=8;strokeColor=#93C5FD;" parent="1" source="107" target="120" edge="1">
          <mxGeometry relative="1" as="geometry" />
        </mxCell>
        <mxCell id="147" style="endArrow=block;rounded=1;jettySize=auto;edgeStyle=orthogonalEdgeStyle;orthogonalLoop=1;jumpStyle=arc;jumpSize=8;strokeColor=#93C5FD;" parent="1" source="107" target="110" edge="1">
          <mxGeometry relative="1" as="geometry" />
        </mxCell>
        <mxCell id="148" style="endArrow=block;rounded=1;jettySize=auto;edgeStyle=orthogonalEdgeStyle;orthogonalLoop=1;jumpStyle=arc;jumpSize=8;strokeColor=#93C5FD;" parent="1" source="103" target="105" edge="1">
          <mxGeometry relative="1" as="geometry" />
        </mxCell>
        <mxCell id="149" style="endArrow=block;rounded=1;jettySize=auto;edgeStyle=orthogonalEdgeStyle;orthogonalLoop=1;jumpStyle=arc;jumpSize=8;strokeColor=#93C5FD;" parent="1" source="103" target="104" edge="1">
          <mxGeometry relative="1" as="geometry" />
        </mxCell>
        <mxCell id="150" style="endArrow=block;rounded=1;jettySize=auto;edgeStyle=orthogonalEdgeStyle;orthogonalLoop=1;jumpStyle=arc;jumpSize=8;strokeColor=#93C5FD;" parent="1" source="103" target="117" edge="1">
          <mxGeometry relative="1" as="geometry" />
        </mxCell>
        <mxCell id="151" style="endArrow=block;rounded=1;jettySize=auto;edgeStyle=orthogonalEdgeStyle;orthogonalLoop=1;jumpStyle=arc;jumpSize=8;strokeColor=#93C5FD;" parent="1" source="103" target="116" edge="1">
          <mxGeometry relative="1" as="geometry" />
        </mxCell>
        <mxCell id="152" style="endArrow=block;rounded=1;jettySize=auto;edgeStyle=orthogonalEdgeStyle;orthogonalLoop=1;jumpStyle=arc;jumpSize=8;strokeColor=#93C5FD;" parent="1" source="116" target="120" edge="1">
          <mxGeometry relative="1" as="geometry" />
        </mxCell>
        <mxCell id="153" value="CREATE" style="endArrow=block;rounded=1;jettySize=auto;edgeStyle=orthogonalEdgeStyle;orthogonalLoop=1;jumpStyle=arc;jumpSize=8;dashed=1;strokeColor=#FCA5A5;dashed=1;" parent="1" source="116" target="122" edge="1">
          <mxGeometry relative="1" as="geometry" />
        </mxCell>
        <mxCell id="154" value="CREATE" style="endArrow=block;rounded=1;jettySize=auto;edgeStyle=orthogonalEdgeStyle;orthogonalLoop=1;jumpStyle=arc;jumpSize=8;dashed=1;strokeColor=#FCA5A5;dashed=1;" parent="1" source="116" target="122" edge="1">
          <mxGeometry relative="1" as="geometry" />
        </mxCell>
        <mxCell id="155" value="CREATE" style="endArrow=block;rounded=1;jettySize=auto;edgeStyle=orthogonalEdgeStyle;orthogonalLoop=1;jumpStyle=arc;jumpSize=8;dashed=1;strokeColor=#FCA5A5;dashed=1;" parent="1" source="116" target="122" edge="1">
          <mxGeometry relative="1" as="geometry" />
        </mxCell>
        <mxCell id="156" value="CREATE" style="endArrow=block;rounded=1;jettySize=auto;edgeStyle=orthogonalEdgeStyle;orthogonalLoop=1;jumpStyle=arc;jumpSize=8;dashed=1;strokeColor=#FCA5A5;dashed=1;" parent="1" source="116" target="122" edge="1">
          <mxGeometry relative="1" as="geometry" />
        </mxCell>
        <mxCell id="157" value="CREATE" style="endArrow=block;rounded=1;jettySize=auto;edgeStyle=orthogonalEdgeStyle;orthogonalLoop=1;jumpStyle=arc;jumpSize=8;dashed=1;strokeColor=#FCA5A5;dashed=1;" parent="1" source="116" target="122" edge="1">
          <mxGeometry relative="1" as="geometry" />
        </mxCell>
        <mxCell id="158" value="CREATE" style="endArrow=block;rounded=1;jettySize=auto;edgeStyle=orthogonalEdgeStyle;orthogonalLoop=1;jumpStyle=arc;jumpSize=8;dashed=1;strokeColor=#FCA5A5;dashed=1;" parent="1" source="116" target="122" edge="1">
          <mxGeometry relative="1" as="geometry" />
        </mxCell>
        <mxCell id="159" value="CREATE" style="endArrow=block;rounded=1;jettySize=auto;edgeStyle=orthogonalEdgeStyle;orthogonalLoop=1;jumpStyle=arc;jumpSize=8;dashed=1;strokeColor=#FCA5A5;dashed=1;" parent="1" source="116" target="122" edge="1">
          <mxGeometry relative="1" as="geometry" />
        </mxCell>
        <mxCell id="160" value="CREATE" style="endArrow=block;rounded=1;jettySize=auto;edgeStyle=orthogonalEdgeStyle;orthogonalLoop=1;jumpStyle=arc;jumpSize=8;dashed=1;strokeColor=#FCA5A5;dashed=1;" parent="1" source="116" target="122" edge="1">
          <mxGeometry relative="1" as="geometry" />
        </mxCell>
        <mxCell id="161" value="SELECT" style="endArrow=block;rounded=1;jettySize=auto;edgeStyle=orthogonalEdgeStyle;orthogonalLoop=1;jumpStyle=arc;jumpSize=8;dashed=1;strokeColor=#FCA5A5;dashed=1;" parent="1" source="107" target="122" edge="1">
          <mxGeometry relative="1" as="geometry" />
        </mxCell>
        <mxCell id="162" value="SELECT" style="endArrow=block;rounded=1;jettySize=auto;edgeStyle=orthogonalEdgeStyle;orthogonalLoop=1;jumpStyle=arc;jumpSize=8;dashed=1;strokeColor=#FCA5A5;dashed=1;" parent="1" source="107" target="122" edge="1">
          <mxGeometry relative="1" as="geometry" />
        </mxCell>
        <mxCell id="163" value="INSERT" style="endArrow=block;rounded=1;jettySize=auto;edgeStyle=orthogonalEdgeStyle;orthogonalLoop=1;jumpStyle=arc;jumpSize=8;dashed=1;strokeColor=#FCA5A5;dashed=1;entryX=0.75;entryY=0.957;entryDx=0;entryDy=0;entryPerimeter=0;" parent="1" source="115" target="122" edge="1">
          <mxGeometry relative="1" as="geometry" />
        </mxCell>
        <mxCell id="164" value="INSERT" style="endArrow=block;rounded=1;jettySize=auto;edgeStyle=orthogonalEdgeStyle;orthogonalLoop=1;jumpStyle=arc;jumpSize=8;dashed=1;strokeColor=#FCA5A5;dashed=1;entryX=0.92;entryY=0.771;entryDx=0;entryDy=0;entryPerimeter=0;" parent="1" source="115" target="122" edge="1">
          <mxGeometry relative="1" as="geometry" />
        </mxCell>
        <mxCell id="165" value="SELECT" style="endArrow=block;rounded=1;jettySize=auto;edgeStyle=orthogonalEdgeStyle;orthogonalLoop=1;jumpStyle=arc;jumpSize=8;dashed=1;strokeColor=#FCA5A5;dashed=1;entryX=0.61;entryY=0.014;entryDx=0;entryDy=0;entryPerimeter=0;exitX=1;exitY=0.25;exitDx=0;exitDy=0;" parent="1" source="104" target="122" edge="1">
          <mxGeometry relative="1" as="geometry" />
        </mxCell>
        <mxCell id="166" value="SELECT" style="endArrow=block;rounded=1;jettySize=auto;edgeStyle=orthogonalEdgeStyle;orthogonalLoop=1;jumpStyle=arc;jumpSize=8;dashed=1;strokeColor=#FCA5A5;dashed=1;entryX=0.39;entryY=0.029;entryDx=0;entryDy=0;entryPerimeter=0;" parent="1" source="104" target="122" edge="1">
          <mxGeometry relative="1" as="geometry" />
        </mxCell>
        <mxCell id="167" value="SELECT" style="endArrow=block;rounded=1;jettySize=auto;edgeStyle=orthogonalEdgeStyle;orthogonalLoop=1;jumpStyle=arc;jumpSize=8;dashed=1;strokeColor=#FCA5A5;dashed=1;" parent="1" source="106" target="122" edge="1">
          <mxGeometry relative="1" as="geometry" />
        </mxCell>
        <mxCell id="168" value="SELECT" style="endArrow=block;rounded=1;jettySize=auto;edgeStyle=orthogonalEdgeStyle;orthogonalLoop=1;jumpStyle=arc;jumpSize=8;dashed=1;strokeColor=#FCA5A5;dashed=1;" parent="1" source="106" target="122" edge="1">
          <mxGeometry relative="1" as="geometry" />
        </mxCell>
        <mxCell id="169" value="SQL" style="endArrow=block;rounded=1;jettySize=auto;edgeStyle=orthogonalEdgeStyle;orthogonalLoop=1;jumpStyle=arc;jumpSize=8;dashed=1;strokeColor=#FCA5A5;dashed=1;" parent="1" source="106" target="122" edge="1">
          <mxGeometry relative="1" as="geometry" />
        </mxCell>
        <mxCell id="170" value="SQL" style="endArrow=block;rounded=1;jettySize=auto;edgeStyle=orthogonalEdgeStyle;orthogonalLoop=1;jumpStyle=arc;jumpSize=8;dashed=1;strokeColor=#FCA5A5;dashed=1;" parent="1" source="106" target="122" edge="1">
          <mxGeometry relative="1" as="geometry" />
        </mxCell>
        <mxCell id="171" value="INSERT" style="endArrow=block;rounded=1;jettySize=auto;edgeStyle=orthogonalEdgeStyle;orthogonalLoop=1;jumpStyle=arc;jumpSize=8;dashed=1;strokeColor=#FCA5A5;dashed=1;" parent="1" source="106" target="122" edge="1">
          <mxGeometry relative="1" as="geometry" />
        </mxCell>
        <mxCell id="172" value="INSERT" style="endArrow=block;rounded=1;jettySize=auto;edgeStyle=orthogonalEdgeStyle;orthogonalLoop=1;jumpStyle=arc;jumpSize=8;dashed=1;strokeColor=#FCA5A5;dashed=1;" parent="1" source="106" target="122" edge="1">
          <mxGeometry relative="1" as="geometry" />
        </mxCell>
        <mxCell id="173" value="SELECT" style="endArrow=block;rounded=1;jettySize=auto;edgeStyle=orthogonalEdgeStyle;orthogonalLoop=1;jumpStyle=arc;jumpSize=8;dashed=1;strokeColor=#FCA5A5;dashed=1;" parent="1" source="106" target="122" edge="1">
          <mxGeometry relative="1" as="geometry" />
        </mxCell>
        <mxCell id="174" value="SELECT" style="endArrow=block;rounded=1;jettySize=auto;edgeStyle=orthogonalEdgeStyle;orthogonalLoop=1;jumpStyle=arc;jumpSize=8;dashed=1;strokeColor=#FCA5A5;dashed=1;exitX=1;exitY=0.75;exitDx=0;exitDy=0;" parent="1" source="106" target="122" edge="1">
          <mxGeometry relative="1" as="geometry" />
        </mxCell>
        <mxCell id="175" value="INSERT" style="endArrow=block;rounded=1;jettySize=auto;edgeStyle=orthogonalEdgeStyle;orthogonalLoop=1;jumpStyle=arc;jumpSize=8;dashed=1;strokeColor=#FCA5A5;dashed=1;entryX=0.6;entryY=1.029;entryDx=0;entryDy=0;entryPerimeter=0;exitX=1;exitY=1;exitDx=0;exitDy=0;" parent="1" source="106" target="122" edge="1">
          <mxGeometry relative="1" as="geometry" />
        </mxCell>
        <mxCell id="176" value="INSERT" style="endArrow=block;rounded=1;jettySize=auto;edgeStyle=orthogonalEdgeStyle;orthogonalLoop=1;jumpStyle=arc;jumpSize=8;dashed=1;strokeColor=#FCA5A5;dashed=1;entryX=0.38;entryY=1;entryDx=0;entryDy=0;entryPerimeter=0;" parent="1" source="106" target="122" edge="1">
          <mxGeometry relative="1" as="geometry" />
        </mxCell>
        <mxCell id="177" value="DELETE" style="endArrow=block;rounded=1;jettySize=auto;edgeStyle=orthogonalEdgeStyle;orthogonalLoop=1;jumpStyle=arc;jumpSize=8;dashed=1;strokeColor=#FCA5A5;dashed=1;entryX=0.21;entryY=0.929;entryDx=0;entryDy=0;entryPerimeter=0;exitX=1;exitY=0.25;exitDx=0;exitDy=0;" parent="1" source="106" target="122" edge="1">
          <mxGeometry relative="1" as="geometry" />
        </mxCell>
        <mxCell id="178" value="DELETE" style="endArrow=block;rounded=1;jettySize=auto;edgeStyle=orthogonalEdgeStyle;orthogonalLoop=1;jumpStyle=arc;jumpSize=8;dashed=1;strokeColor=#FCA5A5;dashed=1;entryX=0.025;entryY=0.643;entryDx=0;entryDy=0;entryPerimeter=0;exitX=0.75;exitY=0;exitDx=0;exitDy=0;" parent="1" source="106" target="122" edge="1">
          <mxGeometry relative="1" as="geometry" />
        </mxCell>
        <mxCell id="179" value="Legend&#xa;• Node (red): touches DB&#xa;• Dashed edge: inter-module&#xa;• Style: midnight/orthogonal/block&#xa;• Generated: 2025-09-12 23:14:14" style="rounded=1;whiteSpace=wrap;html=1;fillColor=#334155;strokeColor=#93C5FD;fontColor=#E5E7EB;" parent="1" vertex="1">
          <mxGeometry x="930" y="890" width="340" height="110" as="geometry" />
        </mxCell>
        <mxCell id="119" value="_wrap_label()" style="rounded=1;whiteSpace=wrap;html=1;fillColor=#1F2937;strokeColor=#93C5FD;fontColor=#E5E7EB;" parent="1" vertex="1">
          <mxGeometry x="340" y="940" width="180" height="54" as="geometry" />
        </mxCell>
        <mxCell id="118" value="_sync_height()" style="rounded=1;whiteSpace=wrap;html=1;fillColor=#1F2937;strokeColor=#93C5FD;fontColor=#E5E7EB;" parent="1" vertex="1">
          <mxGeometry x="540" y="940" width="180" height="54" as="geometry" />
        </mxCell>
        <mxCell id="116" value="_ensure_tables()" style="rounded=1;whiteSpace=wrap;html=1;fillColor=#FCA5A5;strokeColor=#7F1D1D;fontColor=#E5E7EB;" parent="1" vertex="1">
          <mxGeometry x="970" y="770" width="180" height="54" as="geometry" />
        </mxCell>
        <mxCell id="104" value="_load_draft()" style="rounded=1;whiteSpace=wrap;html=1;fillColor=#FCA5A5;strokeColor=#7F1D1D;fontColor=#E5E7EB;" parent="1" vertex="1">
          <mxGeometry x="810" y="-190" width="180" height="54" as="geometry" />
        </mxCell>
      </root>
    </mxGraphModel>
  </diagram>
</mxfile>
